<?xml version="1.0" standalone="no"?>
<!DOCTYPE svg PUBLIC "-//W3C//DTD SVG 20010904//EN"
 "http://www.w3.org/TR/2001/REC-SVG-20010904/DTD/svg10.dtd">
<svg version="1.0" xmlns="http://www.w3.org/2000/svg"
 width="4167.000000pt" height="4167.000000pt" viewBox="0 0 4167.000000 4167.000000"
 preserveAspectRatio="xMidYMid meet">

<g transform="translate(0.000000,4167.000000) scale(0.100000,-0.100000)"
fill="#000000" stroke="none">
<path d="M32143 30260 c-165 -43 -300 -153 -377 -307 -41 -82 -56 -156 -56
-275 l0 -107 -29 -15 c-43 -23 -97 -91 -111 -141 -26 -94 19 -200 107 -252
180 -106 401 92 314 282 -19 43 -74 101 -103 111 -16 5 -18 17 -18 108 0 64 6
123 16 157 42 145 167 257 322 290 34 7 169 9 385 7 316 -3 335 -5 387 -26
113 -46 198 -131 241 -242 17 -42 23 -82 26 -170 l3 -115 -42 -30 c-57 -41
-88 -102 -88 -177 0 -72 24 -122 81 -171 93 -80 218 -70 302 23 33 36 48 64
56 99 20 93 -26 196 -109 243 l-40 23 0 95 c0 112 -19 198 -62 289 -43 92
-167 214 -262 260 -117 55 -163 61 -536 60 -295 0 -344 -2 -407 -19z"/>
<path d="M20267 29829 c-663 -36 -1336 -192 -1998 -462 -205 -84 -612 -288
-726 -364 -547 -366 -855 -851 -924 -1453 -15 -130 -6 -436 16 -575 39 -249
126 -548 235 -805 116 -278 323 -655 520 -950 77 -115 194 -284 210 -303 4 -4
33 17 64 47 205 201 619 367 1121 450 247 41 600 75 805 77 l85 0 -118 25
c-565 117 -1028 446 -1250 890 -135 269 -183 519 -174 907 8 372 50 561 187
842 425 877 1399 1340 2640 1255 1056 -73 1998 -400 2894 -1003 321 -216 513
-372 741 -601 307 -308 506 -613 629 -966 l41 -116 178 47 c99 26 181 49 183
52 2 2 -16 30 -39 63 -24 32 -120 167 -214 299 -284 400 -461 612 -772 928
-514 522 -1011 886 -1596 1172 -829 404 -1794 595 -2738 544z"/>
<path d="M30875 29826 c-140 -44 -179 -104 -328 -507 -222 -598 -468 -1455
-793 -2764 -131 -530 -146 -597 -142 -655 6 -76 31 -130 85 -182 94 -91 194
-101 355 -37 520 207 1181 343 1893 389 206 13 756 13 978 0 665 -40 1359
-147 2036 -315 262 -65 303 -68 389 -24 67 33 105 72 134 136 37 84 36 95 -82
708 -377 1964 -609 3042 -678 3140 -36 52 -109 101 -172 114 -33 7 -232 11
-562 11 l-511 0 7 -67 c6 -59 11 -71 34 -87 51 -37 103 -100 135 -165 28 -58
32 -75 32 -151 0 -71 -4 -94 -27 -142 -35 -75 -95 -138 -165 -174 -52 -26 -68
-29 -153 -29 -114 0 -162 18 -241 92 -73 68 -101 129 -107 230 -8 138 51 265
151 328 l48 30 -6 52 c-3 28 -8 58 -11 67 -6 14 -68 16 -609 16 -430 0 -606
-3 -611 -11 -11 -19 -18 -139 -7 -139 28 0 105 -87 140 -158 35 -70 38 -83 38
-162 0 -76 -3 -92 -33 -152 -38 -77 -92 -130 -171 -167 -47 -22 -70 -26 -146
-26 -76 0 -99 4 -146 26 -70 33 -129 91 -165 161 -23 43 -28 70 -32 146 -4 91
-4 95 32 166 33 67 88 131 152 176 17 12 23 29 28 78 l6 62 -368 -1 c-266 0
-378 -4 -407 -13z"/>
<path d="M7224 29025 c-15 -62 16 -372 56 -560 56 -258 127 -443 325 -853 760
-1575 1385 -3311 1689 -4692 284 -1295 421 -2410 402 -3290 -17 -843 -147
-1561 -412 -2287 -83 -228 -98 -304 -97 -513 0 -136 3 -178 21 -241 41 -153
64 -185 290 -409 488 -483 849 -677 1232 -658 121 6 183 32 245 100 136 152
148 362 85 1563 -128 2426 -381 4629 -696 6065 -189 861 -389 1432 -824 2350
-189 400 -602 1223 -725 1444 -304 550 -588 986 -883 1356 -198 248 -507 542
-662 629 l-39 22 -7 -26z"/>
<path d="M32016 25300 c-1026 -67 -1897 -374 -2516 -886 -245 -202 -298 -235
-380 -237 -38 -1 -80 16 -280 115 -1120 553 -2159 820 -3095 795 -257 -7 -360
-16 -585 -53 -645 -103 -1244 -375 -1659 -752 l-80 -72 -103 41 c-301 121
-786 286 -1125 383 -945 272 -1769 405 -2513 406 -438 0 -774 -39 -1127 -130
-647 -168 -1144 -506 -1466 -997 -53 -81 -63 -91 -76 -80 -296 250 -509 395
-761 521 -303 151 -576 225 -1000 273 -198 22 -864 25 -1065 5 -759 -77 -1456
-273 -2110 -593 -272 -133 -326 -202 -344 -439 -5 -58 -7 -106 -6 -108 2 -2
56 36 121 85 458 340 952 543 1529 630 153 23 685 26 835 5 571 -80 1086 -287
1521 -608 425 -315 678 -663 774 -1067 31 -132 41 -211 65 -557 90 -1275 91
-1642 10 -3777 -17 -429 -30 -876 -30 -992 l0 -211 465 0 465 0 0 2748 c0
1719 4 2799 10 2887 10 136 11 143 53 230 174 361 479 702 844 945 345 230
741 368 1218 426 190 23 584 23 795 0 519 -56 1040 -187 1605 -404 101 -39
760 -326 773 -337 2 -1 -111 -146 -250 -321 -868 -1096 -1400 -1890 -1773
-2649 -238 -485 -398 -914 -470 -1263 -80 -385 -71 -791 25 -1102 85 -278 277
-541 530 -727 144 -106 129 -104 195 -23 209 256 485 409 792 440 122 13 223
7 374 -21 174 -31 306 -83 444 -173 214 -140 377 -369 471 -662 l36 -111 47 5
c70 7 274 68 381 113 342 146 647 347 890 589 220 219 367 424 510 715 137
277 216 518 285 860 67 337 90 610 82 985 -6 273 -13 368 -48 599 -147 1004
-630 2066 -1303 2866 l-76 90 47 43 c149 134 267 199 524 287 216 74 451 125
724 157 168 20 739 17 935 -5 688 -77 1344 -248 1995 -519 170 -71 416 -190
413 -199 -2 -5 -37 -53 -79 -106 -515 -665 -664 -859 -844 -1098 -806 -1067
-1222 -1786 -1475 -2545 -291 -870 -275 -1495 51 -1970 159 -233 397 -427 729
-594 402 -203 856 -342 1267 -386 163 -18 514 -8 668 19 150 26 312 69 441
116 261 96 622 308 849 498 472 397 789 941 940 1612 105 470 128 1090 59
1635 -70 560 -247 1134 -514 1675 -165 333 -313 574 -650 1055 -75 107 -160
230 -190 274 l-54 78 84 82 c104 100 217 182 377 273 126 73 344 171 391 178
15 2 52 15 82 29 129 59 475 140 750 175 463 59 1009 52 1550 -19 681 -91
1439 -283 2235 -567 212 -75 597 -223 607 -232 8 -6 -10 -29 -333 -436 -887
-1119 -1471 -2018 -1845 -2842 -383 -844 -498 -1425 -394 -2000 73 -408 292
-739 647 -980 l85 -58 31 40 c59 77 233 242 307 292 286 192 610 245 975 162
429 -99 735 -391 876 -835 17 -55 33 -105 35 -111 5 -20 53 -15 178 17 142 36
281 91 456 179 832 417 1337 1114 1539 2126 219 1090 32 2265 -543 3413 -193
385 -478 820 -760 1157 l-75 90 22 35 c116 188 161 304 161 421 1 68 -3 84
-37 151 -30 62 -55 93 -128 162 l-90 85 -32 -19 c-18 -11 -94 -71 -169 -134
-76 -63 -160 -130 -186 -150 l-49 -36 -94 41 c-240 105 -613 244 -949 354
-826 270 -1660 444 -2440 510 -215 19 -815 27 -1004 15z m4500 -2067 c189
-155 422 -410 576 -629 348 -496 631 -1186 732 -1784 33 -198 41 -301 41 -560
-1 -358 -30 -569 -115 -821 -172 -516 -582 -889 -1135 -1032 -378 -98 -776
-93 -1100 14 -268 89 -538 273 -720 491 -364 436 -416 987 -165 1748 209 634
707 1432 1339 2145 117 132 460 485 471 485 3 0 37 -26 76 -57z m-7137 -274
c384 -349 704 -833 930 -1409 205 -521 291 -927 291 -1385 0 -496 -98 -879
-303 -1187 -256 -385 -649 -616 -1177 -695 -176 -26 -498 -24 -652 5 -436 82
-826 342 -1060 708 -77 120 -144 290 -180 457 -32 146 -31 466 1 642 111 612
371 1137 936 1890 183 244 269 350 658 802 l319 373 60 -48 c34 -26 113 -95
177 -153z m-5846 47 c603 -537 1081 -1500 1204 -2421 12 -94 17 -201 17 -390
0 -281 -12 -410 -60 -624 -163 -727 -721 -1182 -1534 -1252 -495 -42 -936 107
-1284 433 -222 207 -364 476 -413 782 -21 136 -14 416 16 580 63 347 171 659
349 1006 334 654 800 1286 1370 1862 l166 167 38 -30 c21 -17 80 -68 131 -113z"/>
<path d="M31905 24223 c-129 -7 -347 -35 -489 -64 -82 -16 -152 -32 -156 -34
-4 -3 3 -42 16 -87 88 -301 323 -1302 423 -1803 58 -293 63 -391 68 -1375 6
-979 -5 -1833 -43 -3557 l-7 -303 468 0 468 0 -7 223 c-63 2133 -58 4947 10
5687 50 555 170 1025 300 1179 14 17 25 34 22 36 -6 7 -246 53 -358 69 -207
30 -485 41 -715 29z"/>
<path d="M19631 23979 c-467 -49 -928 -267 -1280 -604 -56 -54 -116 -116 -133
-137 l-30 -39 39 -37 c166 -156 289 -549 332 -1067 48 -566 48 -1970 1 -4260
-5 -258 -12 -557 -16 -662 l-6 -193 467 0 468 0 -7 298 c-3 163 -11 491 -16
727 -6 237 -14 855 -20 1375 -19 1774 17 3118 95 3609 9 51 15 148 14 215 -2
212 65 515 165 749 9 20 15 36 14 36 -2 -1 -41 -6 -87 -10z"/>
<path d="M12127 23369 c-307 -135 -496 -349 -571 -644 -17 -67 -74 -429 -105
-665 -72 -542 -79 -1000 -21 -1380 109 -717 422 -1161 941 -1334 519 -174
1229 -38 1794 344 203 137 458 370 652 595 398 461 725 1037 1012 1780 248
645 259 796 69 992 -75 76 -190 168 -338 267 l-84 57 -32 -193 c-126 -756
-341 -1319 -684 -1789 -327 -449 -696 -700 -1146 -780 -152 -27 -418 -29 -573
-5 -283 44 -485 139 -657 311 -137 136 -221 279 -302 516 -79 230 -108 425
-99 684 6 197 35 376 146 924 39 190 69 346 68 347 -1 2 -33 -11 -70 -27z"/>
<path d="M34867 17550 c-203 -34 -411 -152 -540 -306 -136 -160 -203 -329
-214 -536 -14 -266 78 -501 268 -684 89 -85 147 -125 243 -169 122 -57 206
-76 360 -82 133 -6 139 -5 134 13 -2 10 -29 117 -58 236 l-54 217 -64 11
c-137 24 -251 110 -313 235 -32 66 -34 75 -34 180 0 105 2 114 33 178 43 86
113 156 199 199 65 32 73 33 183 33 104 0 120 -3 173 -27 122 -58 218 -185
241 -321 l12 -71 224 -63 c123 -35 230 -61 238 -58 12 4 14 30 10 153 -4 124
-10 160 -33 232 -104 327 -368 561 -703 626 -79 15 -226 17 -305 4z"/>
<path d="M21800 17536 c-274 -61 -489 -227 -610 -471 -164 -330 -106 -719 147
-981 285 -296 738 -354 1096 -140 431 257 544 854 239 1257 -128 169 -322 292
-524 333 -91 19 -268 19 -348 2z"/>
<path d="M35054 16603 c3 -10 62 -245 131 -523 69 -278 128 -511 131 -519 3
-10 46 26 132 112 70 70 132 127 137 127 5 0 94 -84 197 -187 l188 -188 132
133 133 132 -190 190 -190 190 130 124 c72 68 128 126 125 128 -7 7 -1034 298
-1049 298 -7 0 -10 -8 -7 -17z"/>
<path d="M27980 15217 c0 -343 4 -376 61 -488 40 -80 30 -88 -11 -10 -59 110
-184 203 -308 230 -38 8 -494 11 -1615 11 l-1562 -1 85 -79 85 -80 1123 0
1122 0 0 -105 0 -104 -32 -5 c-18 -3 -64 -8 -103 -11 -224 -19 -632 -99 -922
-180 -209 -58 -958 -310 -956 -321 1 -7 324 -805 327 -810 1 -1 53 16 117 36
360 119 741 126 1061 20 305 -102 556 -303 700 -560 l43 -78 115 -40 c63 -23
124 -44 134 -48 19 -7 19 5 13 607 -4 338 -10 836 -14 1108 l-6 493 159 -4
c156 -4 161 -4 214 -34 61 -34 120 -104 147 -174 17 -41 18 -112 21 -886 l3
-840 245 -93 c135 -51 247 -91 249 -89 2 2 -2 487 -10 1078 -8 591 -13 1076
-11 1077 1 1 26 -6 54 -17 50 -19 79 -20 627 -20 316 0 575 -1 575 -3 0 -1
-28 -32 -62 -68 -118 -124 -172 -242 -172 -379 0 -98 15 -169 55 -258 83 -186
286 -371 481 -440 56 -19 98 -26 183 -30 182 -7 325 36 428 128 55 49 54 49
88 -40 17 -46 20 -72 17 -160 -2 -88 -7 -114 -29 -161 -70 -149 -226 -219
-489 -219 -152 0 -224 16 -345 74 -115 56 -198 120 -307 235 -257 270 -404
617 -439 1036 -6 77 -12 141 -13 141 0 1 -45 -33 -99 -75 l-99 -76 6 -115 c22
-448 186 -834 490 -1148 209 -216 449 -348 724 -398 119 -21 358 -21 486 1
445 76 697 331 713 720 10 241 -60 396 -289 638 l-83 88 -121 6 -121 6 -11
-56 c-17 -84 -53 -147 -126 -214 -115 -108 -312 -182 -407 -154 -92 28 -183
157 -195 276 -11 114 45 231 173 360 73 74 179 152 266 196 l58 30 77 -71
c222 -205 547 -361 947 -456 66 -15 121 -29 123 -29 1 -1 -13 -35 -32 -77 -69
-149 -104 -321 -113 -558 -8 -226 5 -321 72 -520 31 -91 80 -215 109 -276 55
-114 130 -234 146 -234 9 0 150 118 150 126 0 2 -13 28 -29 57 -70 124 -113
379 -90 541 30 220 186 482 441 739 l117 119 -40 111 c-22 61 -41 112 -43 114
-1 1 -82 7 -179 13 -538 30 -1025 177 -1315 395 -34 26 -62 51 -62 56 0 6 352
9 933 7 l932 -3 55 -31 c61 -34 120 -104 147 -174 17 -41 18 -112 21 -886 l3
-840 245 -93 c135 -51 247 -91 249 -89 2 2 -2 487 -10 1078 -8 591 -13 1076
-11 1077 1 1 26 -6 54 -17 51 -20 81 -20 1237 -20 l1185 0 0 -105 0 -104 -32
-5 c-18 -3 -64 -8 -103 -11 -224 -19 -632 -99 -922 -180 -209 -58 -958 -310
-956 -321 1 -7 324 -805 327 -810 1 -1 53 16 117 36 360 119 741 126 1061 20
305 -102 556 -303 700 -560 l43 -78 115 -40 c63 -23 124 -44 134 -48 19 -7 19
5 13 607 -4 338 -10 836 -14 1107 l-6 492 184 0 184 0 -80 80 -80 80 -1535 0
c-1676 0 -1601 -3 -1664 56 -46 43 -59 87 -65 224 l-6 124 -179 83 c-99 46
-181 83 -183 83 -2 0 -3 -141 -3 -313 0 -343 4 -376 61 -488 40 -80 30 -88
-11 -10 -59 110 -184 203 -308 230 -38 8 -607 11 -2046 11 -2174 0 -2056 -3
-2120 56 -46 43 -59 87 -65 224 l-6 124 -179 83 c-99 46 -181 83 -183 83 -2 0
-3 -141 -3 -313z m-1020 -1230 c0 -210 5 -421 11 -467 11 -95 53 -229 99 -319
33 -67 34 -71 20 -71 -5 0 -41 47 -80 104 -327 488 -692 695 -1299 736 -86 6
-199 8 -251 5 -91 -5 -94 -5 -67 10 72 41 408 158 646 225 250 70 627 137 856
153 28 2 53 4 58 5 4 1 7 -170 7 -381z m8830 0 c0 -210 5 -421 11 -467 11 -95
53 -229 99 -319 33 -67 34 -71 20 -71 -5 0 -41 47 -80 104 -327 488 -692 695
-1299 736 -86 6 -199 8 -251 5 -91 -5 -94 -5 -67 10 72 41 408 158 646 225
250 70 627 137 856 153 28 2 53 4 58 5 4 1 7 -170 7 -381z"/>
<path d="M18015 15400 c-3093 -85 -6722 -444 -9595 -951 -2388 -422 -4799
-950 -6310 -1384 l-194 -55 -96 -93 c-52 -50 -144 -139 -203 -196 -89 -85
-103 -103 -80 -98 15 3 197 42 403 87 3316 716 6680 1178 9830 1350 1049 57
1708 74 2835 74 1435 0 2450 -39 3710 -144 1437 -120 2898 -335 3876 -571
l175 -42 122 62 c378 193 821 565 1264 1061 148 166 328 384 328 398 0 5 -8
12 -17 15 -395 111 -684 177 -1033 236 -738 126 -1435 192 -2550 242 -297 13
-2066 20 -2465 9z"/>
<path d="M12319 13255 c-189 -36 -361 -126 -495 -260 -92 -91 -127 -140 -184
-253 -227 -456 -37 -1017 425 -1249 137 -69 338 -110 479 -98 243 22 470 132
627 303 212 232 294 554 219 860 -79 327 -351 599 -680 682 -110 28 -287 35
-391 15z"/>
<path d="M18343 13256 c-454 -87 -773 -465 -773 -918 0 -292 106 -525 327
-719 260 -228 650 -287 975 -149 208 89 387 264 484 476 63 135 78 209 78 384
0 180 -17 258 -84 399 -69 143 -179 276 -305 367 -71 52 -216 119 -310 144
-103 27 -291 35 -392 16z"/>
<path d="M34865 13087 c-131 -51 -204 -151 -205 -278 0 -125 61 -231 164 -284
50 -25 70 -30 135 -30 63 0 86 5 133 28 203 99 239 359 70 507 -24 21 -64 46
-89 54 -54 18 -164 20 -208 3z"/>
</g>
</svg>
